<svg width="1200" height="630" viewBox="0 0 1200 630" fill="none" xmlns="http://www.w3.org/2000/svg">
  <defs>
    <linearGradient id="bg" x1="0" y1="0" x2="1200" y2="630" gradientUnits="userSpaceOnUse">
      <stop offset="0%" stop-color="#071020"/>
      <stop offset="55%" stop-color="#0E1E40"/>
      <stop offset="100%" stop-color="#1B3A8C"/>
    </linearGradient>
    <linearGradient id="markbg" x1="0" y1="0" x2="160" y2="160" gradientUnits="userSpaceOnUse">
      <stop offset="0%" stop-color="#071020"/>
      <stop offset="100%" stop-color="#1B3A8C"/>
    </linearGradient>
    <linearGradient id="sh" x1="80" y1="44" x2="80" y2="136" gradientUnits="userSpaceOnUse">
      <stop offset="0%" stop-color="#3B82F6" stop-opacity="0.45"/>
      <stop offset="100%" stop-color="#1D4ED8" stop-opacity="0.1"/>
    </linearGradient>
    <radialGradient id="glow" cx="50%" cy="40%" r="60%">
      <stop offset="0%" stop-color="#3B82F6" stop-opacity="0.25"/>
      <stop offset="100%" stop-color="#3B82F6" stop-opacity="0"/>
    </radialGradient>
  </defs>

  <rect width="1200" height="630" fill="url(#bg)"/>
  <rect width="1200" height="630" fill="url(#glow)"/>

  <!-- Logo mark, scaled 4x (40->160), positioned -->
  <g transform="translate(520, 150)">
    <rect width="160" height="160" rx="36" fill="url(#markbg)"/>
    <path d="M32 44 L128 44 L128 80 Q128 112 80 136 Q32 112 32 80 Z"
          fill="url(#sh)" stroke="rgba(255,255,255,0.18)" stroke-width="3"/>
    <rect x="44" y="30" width="72" height="10" rx="5" fill="#F5A623"/>
    <line x1="106" y1="40" x2="106" y2="54" stroke="#F5A623" stroke-width="4.8" stroke-linecap="round"/>
    <circle cx="106" cy="58.4" r="4.6" fill="#F5A623"/>
    <path d="M100 64 Q100 52 80 52 Q60 52 60 76 Q60 88 80 88 Q100 88 100 112 Q100 124 80 124 Q60 124 60 108"
          stroke="white" stroke-width="8.4" stroke-linecap="round" stroke-linejoin="round"/>
  </g>

  <!-- Wordmark -->
  <text x="600" y="400" font-family="Georgia, 'Playfair Display', serif" font-size="92" font-weight="700" fill="#ffffff" text-anchor="middle" letter-spacing="6">SSRA ACADEMY</text>
  <text x="600" y="452" font-family="Inter, system-ui, sans-serif" font-size="26" font-weight="500" fill="#9DB4E0" text-anchor="middle" letter-spacing="3">Sports Science &amp; Rehabilitation Academy</text>

  <!-- Gold underline accent -->
  <rect x="540" y="486" width="120" height="4" rx="2" fill="#F5A623"/>

  <text x="600" y="548" font-family="Inter, system-ui, sans-serif" font-size="22" font-weight="400" fill="#6B82AE" text-anchor="middle" letter-spacing="1">Medical German · Rehabilitation · Career in Germany</text>
</svg>
